<?xml version="1.0" standalone="no"?>
<!DOCTYPE svg PUBLIC "-//W3C//DTD SVG 20010904//EN"
 "http://www.w3.org/TR/2001/REC-SVG-20010904/DTD/svg10.dtd">
<svg version="1.0" xmlns="http://www.w3.org/2000/svg"
 width="460.000000pt" height="460.000000pt" viewBox="0 0 460.000000 460.000000"
 preserveAspectRatio="xMidYMid meet">
<metadata>
Created by potrace 1.11, written by Peter Selinger 2001-2013
</metadata>
<g transform="translate(0.000000,460.000000) scale(0.100000,-0.100000)"
fill="#000000" stroke="none">
<path d="M3236 3545 c-38 -10 -61 -25 -97 -63 -30 -32 -59 -52 -80 -57 -54
-12 -106 -42 -134 -79 -30 -40 -51 -127 -42 -176 9 -48 59 -106 118 -135 118
-60 331 -12 436 97 40 42 63 120 63 212 l0 71 -56 54 c-51 48 -123 91 -149 90
-5 0 -32 -6 -59 -14z"/>
<path d="M2524 3444 c-56 -27 -129 -198 -106 -248 16 -36 78 -60 113 -45 15 6
33 8 38 4 19 -11 49 5 55 30 4 15 21 32 46 45 32 16 40 26 40 48 0 50 -86 161
-135 176 -11 3 -34 -2 -51 -10z"/>
<path d="M1945 3227 c-42 -20 -82 -66 -90 -104 -5 -23 1 -45 21 -85 14 -29 36
-72 48 -95 35 -70 66 -87 173 -91 85 -4 93 -3 94 14 1 11 2 90 3 177 l1 157
-34 16 c-46 22 -177 29 -216 11z"/>
<path d="M1531 3022 c-19 -14 -21 -23 -15 -59 5 -34 13 -47 41 -64 18 -12 48
-22 66 -23 26 -1 33 3 35 22 5 35 -16 78 -55 112 -39 35 -44 36 -72 12z"/>
<path d="M2341 2946 c-34 -36 -26 -76 20 -99 71 -34 120 17 86 89 -14 29 -22
34 -50 34 -22 0 -41 -8 -56 -24z"/>
<path d="M2845 2942 c-50 -11 -85 -35 -85 -57 0 -31 70 -65 132 -65 38 0 49 4
63 26 19 30 14 69 -13 82 -24 13 -73 20 -97 14z"/>
<path d="M1363 2898 c-28 -13 -46 -58 -38 -91 7 -25 10 -26 54 -21 25 3 52 7
59 10 20 6 15 71 -8 94 -22 22 -35 24 -67 8z"/>
<path d="M1805 2880 c-8 -26 22 -70 49 -70 44 0 52 32 18 73 -20 23 -59 22
-67 -3z"/>
<path d="M1614 2742 c-122 -85 -161 -89 -287 -32 -64 29 -148 42 -165 26 -3
-4 0 -17 8 -29 7 -12 48 -78 90 -147 42 -69 130 -212 196 -317 65 -106 124
-201 129 -210 15 -27 91 -150 134 -218 21 -33 149 -242 286 -465 287 -469 326
-530 334 -530 3 0 57 96 119 213 62 116 155 291 208 387 124 228 174 320 249
460 34 63 77 142 95 175 35 66 88 163 151 283 23 42 58 106 79 142 20 36 50
92 68 126 l32 61 -38 17 c-20 9 -62 21 -92 27 -70 14 -448 23 -463 11 -7 -5
-34 -17 -60 -26 -47 -18 -50 -18 -85 0 -20 11 -52 29 -70 42 -50 32 -127 30
-195 -5 -66 -34 -162 -38 -217 -8 -29 15 -55 18 -155 17 -105 -1 -127 2 -181
24 -33 13 -70 24 -81 24 -11 0 -51 -22 -89 -48z"/>
</g>
</svg>
